# xmcd CD database file
#
# Track frame offsets:
#	182
#	38117
#	72885
#	104297
#	147150
#	171092
#	191267
#	217150
#	253607
#
# Disc length: 4198 seconds
#
# Revision: 0
# Processed by: cddbd v1.5PL3 Copyright (c) Steve Scherf et al.
# Submitted via: CDex 1.40Release
#
DISCID=7f106409
DTITLE=Freddie King - Live In Germany
DYEAR=1975
DGENRE=Blues
TTITLE0=Sweet Home Chicago/Ghetto Woman
TTITLE1=Have You Ever Loved A Woman
TTITLE2=The Moon Is Rising
TTITLE3=It Ain't Nobody's Business
TTITLE4=Big Legged Woman
TTITLE5=Woman Across The River
TTITLE6=Key To The Highway
TTITLE7=Let The Good Times Roll
TTITLE8=Stormy Monday/Little Bluebird
EXTD=YEAR: 1975 ID3G: 0
EXTT0=
EXTT1=
EXTT2=
EXTT3=
EXTT4=
EXTT5=
EXTT6=
EXTT7=
EXTT8=
PLAYORDER=
